<svg version="1.2" baseProfile="tiny-ps" xmlns="http://www.w3.org/2000/svg" viewBox="0 0 1538 559" width="1538" height="559">
	<title>logo-ai</title>
	<defs>
		<linearGradient id="grd1" gradientUnits="userSpaceOnUse"  x1="361.426" y1="204.339" x2="1176.888" y2="247.399">
			<stop offset="0" stop-color="#3ab5e6"  />
			<stop offset="1" stop-color="#2ab0a1"  />
		</linearGradient>
		<linearGradient id="grd2" gradientUnits="userSpaceOnUse"  x1="361.64" y1="200.298" x2="1177.101" y2="243.359">
			<stop offset="0" stop-color="#3ab5e6"  />
			<stop offset="1" stop-color="#2ab0a1"  />
		</linearGradient>
		<linearGradient id="grd3" gradientUnits="userSpaceOnUse"  x1="361.811" y1="197.057" x2="1177.272" y2="240.118">
			<stop offset="0" stop-color="#3ab5e6"  />
			<stop offset="1" stop-color="#2ab0a1"  />
		</linearGradient>
		<linearGradient id="grd4" gradientUnits="userSpaceOnUse"  x1="361.984" y1="193.776" x2="1177.446" y2="236.837">
			<stop offset="0" stop-color="#3ab5e6"  />
			<stop offset="1" stop-color="#2ab0a1"  />
		</linearGradient>
		<linearGradient id="grd5" gradientUnits="userSpaceOnUse"  x1="362.256" y1="188.626" x2="1177.718" y2="231.687">
			<stop offset="0" stop-color="#3ab5e6"  />
			<stop offset="1" stop-color="#2ab0a1"  />
		</linearGradient>
		<linearGradient id="grd6" gradientUnits="userSpaceOnUse"  x1="362.487" y1="184.249" x2="1177.949" y2="227.31">
			<stop offset="0" stop-color="#3ab5e6"  />
			<stop offset="1" stop-color="#2ab0a1"  />
		</linearGradient>
		<linearGradient id="grd7" gradientUnits="userSpaceOnUse"  x1="-167.786" y1="-19.296" x2="677.324" y2="20.676">
			<stop offset="0" stop-color="#3ab5e6"  />
			<stop offset="1" stop-color="#2ab0a1"  />
		</linearGradient>
		<linearGradient id="grd8" gradientUnits="userSpaceOnUse"  x1="-167.36" y1="-28.319" x2="677.751" y2="11.653">
			<stop offset="0" stop-color="#3ab5e6"  />
			<stop offset="1" stop-color="#2ab0a1"  />
		</linearGradient>
	</defs>
	<style>
		tspan { white-space:pre }
		.shp0 { fill: #65BDC2 } 
		.shp1 { fill: #65BDC2  } 
		.shp2 { fill: #65BDC2  } 
		.shp3 { fill: #65BDC2  } 
		.shp4 { fill: #65BDC2  } 
		.shp5 { fill: #65BDC2  } 
		.shp6 { fill: #d02824		  } 
		.shp7 { fill: #0E3055  } 
		.shp8 { fill: #65BDC2  } 
		.shp9 { fill:#0E3055  } 
	</style>
	<g id="Layer 1">
		<g id="&lt;Group&gt;">
			<path id="&lt;Compound Path&gt;" class="shp0" d="M677.81 226.2L699.52 226.2L699.52 314.17L677.81 314.17L677.81 279.95L651 279.95L651 314.17L629.68 314.17L629.68 226.2L651 226.2L651 260.93L677.81 260.93L677.81 226.2Z" />
			<path id="&lt;Compound Path&gt;" class="shp1" d="M719.18 314.17L719.18 226.2L776.26 226.2L776.26 244.84L740.51 244.84L740.51 261.69L771.92 261.69L771.92 279.95L740.51 279.95L740.51 295.53L777.41 295.53L777.41 314.17L719.18 314.17Z" />
			<path id="&lt;Compound Path&gt;" class="shp2" d="M840.09 294L826.05 246.63L804.98 314.17L782.12 314.17L814.56 226.2L837.8 226.2L870.1 314.17L847.5 314.17L840.09 294Z" />
			<path id="&lt;Compound Path&gt;" class="shp3" d="M878.53 314.17L878.53 226.2L900.11 226.2L900.11 295.53L931.77 295.53L931.77 314.17L878.53 314.17Z" />
			<path id="&lt;Compound Path&gt;" class="shp4" d="M931.13 244.84L931.13 226.2L997.91 226.2L997.91 244.84L975.18 244.84L975.18 314.17L953.86 314.17L953.86 244.84L931.13 244.84Z" />
			<path id="&lt;Compound Path&gt;" class="shp5" d="M1059.33 226.2L1081.03 226.2L1081.03 314.17L1059.33 314.17L1059.33 279.95L1032.51 279.95L1032.51 314.17L1011.19 314.17L1011.19 226.2L1032.51 226.2L1032.51 260.93L1059.33 260.93L1059.33 226.2Z" />
			<path id="&lt;Compound Path&gt;" class="shp6" d="M1094.3 226.2L1158.4 226.2L1158.4 231.94L1129.16 231.94L1129.16 314.17L1123.41 314.17L1123.41 231.94L1094.3 231.94L1094.3 226.2Z" />
			<path id="&lt;Compound Path&gt;" class="shp6" d="M1235.53 284.94C1235.53 303.45 1221.61 315.58 1204.75 315.58C1188.03 315.58 1174.11 303.45 1174.11 284.94L1174.11 226.2L1179.85 226.2L1179.85 284.94C1179.85 300 1191.09 309.71 1204.75 309.71C1218.42 309.71 1229.78 300 1229.78 284.94L1229.78 226.2L1235.53 226.2L1235.53 284.94Z" />
			<path id="&lt;Compound Path&gt;" fill-rule="evenodd" class="shp6" d="M1266.8 278.68L1266.8 314.17L1260.93 314.17L1260.93 226.2L1293.36 226.2C1310.73 226.2 1317.49 239.22 1317.49 252.5C1317.49 265.78 1310.85 278.68 1292.98 278.68L1291.32 278.68L1316.47 314.17L1309.45 314.17L1284.29 278.68L1266.8 278.68ZM1266.8 231.94L1266.8 272.93L1292.72 272.93C1306.64 272.93 1311.75 262.97 1311.75 252.5C1311.75 242.29 1306.64 231.94 1293.36 231.94L1266.8 231.94Z" />
			<path id="&lt;Compound Path&gt;" class="shp6" d="M1343.8 314.17L1338.05 314.17L1338.05 226.2L1343.8 226.2L1343.8 270.51L1379.68 226.2L1386.7 226.2L1349.67 271.78L1393.08 314.17L1385.17 314.17L1343.8 273.83L1343.8 314.17Z" />
			<path id="&lt;Compound Path&gt;" class="shp6" d="M1406.23 226.2L1455.01 226.2L1455.01 231.94L1411.98 231.94L1411.98 268.08L1449.64 268.08L1449.64 273.83L1411.98 273.83L1411.98 308.43L1456.54 308.43L1456.54 314.17L1406.23 314.17L1406.23 226.2Z" />
			<path id="&lt;Compound Path&gt;" class="shp6" d="M1504.8 272.55L1504.8 314.17L1498.93 314.17L1498.93 272.55L1465.99 226.2L1472.88 226.2L1501.87 266.55L1531.11 226.2L1538 226.2L1504.8 272.55Z" />
			<path id="&lt;Path&gt;" class="shp7" d="M639.2 530.49L331.71 274.53L607.87 28.6L760.12 28.6L500.16 276.26L806.01 530.49L639.2 530.49Z" />
			<path id="&lt;Path&gt;" class="shp8" d="M639.2 530.49L331.71 274.53L607.87 28.6L760.12 28.6L500.16 276.26L806.01 530.49L639.2 530.49Z" />
			<path id="&lt;Path&gt;" class="shp6" d="M102.45 276.36C105.09 275.9 107.72 275.06 110.37 275.05C129.89 274.93 149.43 274.6 168.93 275.19C176.21 275.41 179.19 272.76 180.76 266.16C182.35 259.48 184.83 253 186.93 246.44C188.22 246.46 189.51 246.49 190.8 246.52C193.21 262.56 195.61 278.59 198.01 294.63C198.62 294.78 199.22 294.93 199.82 295.08C204.71 276.25 209.6 257.42 214.48 238.58C215.68 238.6 216.87 238.61 218.07 238.63C226.24 280.11 231.1 322.2 240.24 364.22C241.02 361.94 241.93 359.71 242.56 357.39C249.67 331.24 256.93 305.12 263.65 278.87C265.12 273.11 267.66 271.5 273.28 271.61C289.22 271.94 305.18 271.95 321.12 271.55C324.45 271.47 328.19 269.73 330.92 267.67C336.08 263.76 341.12 263.16 345.68 267.54C349.72 271.41 350.06 276.52 346.06 280.8C341.59 285.6 336.72 285.32 331.43 281.37C328.87 279.45 325.36 277.86 322.24 277.79C307.12 277.42 291.99 277.85 276.87 277.5C271.39 277.37 269.33 279.43 268 284.54C260.01 315.27 251.68 345.91 243.45 376.58C243.03 378.16 242.78 379.87 241.98 381.25C241.14 382.68 239.74 383.78 238.59 385.03C237.65 383.61 236.13 382.3 235.86 380.77C233.53 367.56 231.36 354.31 229.27 341.06C225.26 315.63 221.36 290.18 217.34 264.75C217.14 263.51 216.31 262.36 214.92 259.27C210.39 276.79 206.34 292.47 202.28 308.14C201.8 310 201.53 311.98 200.68 313.65C199.94 315.08 198.51 316.16 197.38 317.4C196.45 315.96 194.93 314.61 194.69 313.06C192.87 301.15 191.33 289.19 189.64 277.26C189.18 274.04 188.52 270.85 187.94 267.58C186.94 267.82 186.14 267.89 186.13 268.04C184.78 280.57 176.49 281.28 166.25 280.92C147.85 280.28 129.4 280.81 110.98 280.67C108.11 280.65 105.25 279.74 102.38 279.25C102.4 278.28 102.43 277.32 102.45 276.36Z" />
			<path id="&lt;Path&gt;" class="shp9" d="M492.5 455.76C441.39 518.86 365.51 558.47 277.5 558.47C123.63 558.47 0.55 433.01 0.55 279.94C0.55 126.07 123.63 0.62 277.5 0.62C359.73 0.62 431.92 35.18 482.84 91.18L383.2 179.91C356.88 151.27 319 133.17 277.5 133.17C197.01 133.17 133.89 198.66 133.89 279.94C133.89 361.21 197.01 425.91 277.5 425.91C324.4 425.91 364.45 404.76 391.07 371.33L492.5 455.76Z" />
		</g>
	</g>
</svg>